<mxfile host="app.diagrams.net" modified="2024-03-12T09:18:06.694Z" agent="Mozilla/5.0 (Windows NT 10.0; Win64; x64) AppleWebKit/537.36 (KHTML, like Gecko) Chrome/122.0.0.0 Safari/537.36" etag="UUZNc3wafsTtzUfRx3hy" version="24.0.5" type="device">
  <diagram name="Página-1" id="5eDZMZe1HY_OgBMlzW1J">
    <mxGraphModel dx="1914" dy="1018" grid="1" gridSize="10" guides="1" tooltips="1" connect="1" arrows="1" fold="1" page="1" pageScale="1" pageWidth="827" pageHeight="1169" math="0" shadow="0">
      <root>
        <mxCell id="0" />
        <mxCell id="1" parent="0" />
        <mxCell id="uQFlVMjGtfuedlcn_8W_-1" value="Usuario NO&lt;div&gt;Registrado&lt;/div&gt;" style="shape=umlActor;verticalLabelPosition=bottom;verticalAlign=top;html=1;outlineConnect=0;" parent="1" vertex="1">
          <mxGeometry x="40" y="220" width="80" height="120" as="geometry" />
        </mxCell>
        <mxCell id="uQFlVMjGtfuedlcn_8W_-2" value="" style="rounded=1;whiteSpace=wrap;html=1;" parent="1" vertex="1">
          <mxGeometry x="240" y="40" width="280" height="480" as="geometry" />
        </mxCell>
        <mxCell id="uQFlVMjGtfuedlcn_8W_-3" value="INICIO" style="ellipse;whiteSpace=wrap;html=1;" parent="1" vertex="1">
          <mxGeometry x="295" y="80" width="175" height="30" as="geometry" />
        </mxCell>
        <mxCell id="uQFlVMjGtfuedlcn_8W_-4" value="&lt;b&gt;&lt;u&gt;PLANÉALO&lt;/u&gt;&lt;/b&gt;" style="text;html=1;align=center;verticalAlign=middle;whiteSpace=wrap;rounded=0;" parent="1" vertex="1">
          <mxGeometry x="335" y="40" width="90" height="30" as="geometry" />
        </mxCell>
        <mxCell id="uQFlVMjGtfuedlcn_8W_-5" value="VISUALIZAR CONTENIDO GENERAL" style="ellipse;whiteSpace=wrap;html=1;" parent="1" vertex="1">
          <mxGeometry x="262.5" y="220" width="235" height="30" as="geometry" />
        </mxCell>
        <mxCell id="uQFlVMjGtfuedlcn_8W_-6" value="ACCESO A MAPAS" style="ellipse;whiteSpace=wrap;html=1;" parent="1" vertex="1">
          <mxGeometry x="295" y="270" width="175" height="30" as="geometry" />
        </mxCell>
        <mxCell id="uQFlVMjGtfuedlcn_8W_-7" value="CONSULTA PRECIO ACTIVIDADES" style="ellipse;whiteSpace=wrap;html=1;" parent="1" vertex="1">
          <mxGeometry x="262.5" y="320" width="237.5" height="30" as="geometry" />
        </mxCell>
        <mxCell id="uQFlVMjGtfuedlcn_8W_-8" value="LECTURA DE RESEÑAS" style="ellipse;whiteSpace=wrap;html=1;" parent="1" vertex="1">
          <mxGeometry x="295" y="370" width="175" height="30" as="geometry" />
        </mxCell>
        <mxCell id="uQFlVMjGtfuedlcn_8W_-9" value="CONTACTO O SOPORTE" style="ellipse;whiteSpace=wrap;html=1;" parent="1" vertex="1">
          <mxGeometry x="295" y="420" width="175" height="30" as="geometry" />
        </mxCell>
        <mxCell id="uQFlVMjGtfuedlcn_8W_-10" value="FAQS" style="ellipse;whiteSpace=wrap;html=1;" parent="1" vertex="1">
          <mxGeometry x="295" y="470" width="175" height="30" as="geometry" />
        </mxCell>
        <mxCell id="uQFlVMjGtfuedlcn_8W_-11" value="EXPLORAR DESTINOS" style="ellipse;whiteSpace=wrap;html=1;" parent="1" vertex="1">
          <mxGeometry x="295" y="170" width="175" height="30" as="geometry" />
        </mxCell>
        <mxCell id="uQFlVMjGtfuedlcn_8W_-12" value="REGISTRO&amp;nbsp;" style="ellipse;whiteSpace=wrap;html=1;" parent="1" vertex="1">
          <mxGeometry x="295" y="120" width="175" height="30" as="geometry" />
        </mxCell>
        <mxCell id="oF3aaQSfedgvDOoEszKf-3" value="" style="endArrow=none;html=1;rounded=0;edgeStyle=orthogonalEdgeStyle;entryX=0;entryY=0.5;entryDx=0;entryDy=0;curved=1;exitX=0.5;exitY=0;exitDx=0;exitDy=0;exitPerimeter=0;" edge="1" parent="1" source="uQFlVMjGtfuedlcn_8W_-1" target="uQFlVMjGtfuedlcn_8W_-3">
          <mxGeometry width="50" height="50" relative="1" as="geometry">
            <mxPoint x="150" y="130" as="sourcePoint" />
            <mxPoint x="200" y="80" as="targetPoint" />
          </mxGeometry>
        </mxCell>
        <mxCell id="oF3aaQSfedgvDOoEszKf-4" value="" style="endArrow=none;html=1;rounded=0;edgeStyle=orthogonalEdgeStyle;entryX=0;entryY=0.5;entryDx=0;entryDy=0;curved=1;exitX=0.5;exitY=0;exitDx=0;exitDy=0;exitPerimeter=0;" edge="1" parent="1" source="uQFlVMjGtfuedlcn_8W_-1" target="uQFlVMjGtfuedlcn_8W_-12">
          <mxGeometry width="50" height="50" relative="1" as="geometry">
            <mxPoint x="105" y="220" as="sourcePoint" />
            <mxPoint x="305" y="105" as="targetPoint" />
          </mxGeometry>
        </mxCell>
        <mxCell id="oF3aaQSfedgvDOoEszKf-5" value="" style="endArrow=none;html=1;rounded=0;edgeStyle=orthogonalEdgeStyle;entryX=0;entryY=0.5;entryDx=0;entryDy=0;curved=1;exitX=0.5;exitY=0;exitDx=0;exitDy=0;exitPerimeter=0;" edge="1" parent="1" source="uQFlVMjGtfuedlcn_8W_-1" target="uQFlVMjGtfuedlcn_8W_-11">
          <mxGeometry width="50" height="50" relative="1" as="geometry">
            <mxPoint x="105" y="220" as="sourcePoint" />
            <mxPoint x="305" y="145" as="targetPoint" />
          </mxGeometry>
        </mxCell>
        <mxCell id="oF3aaQSfedgvDOoEszKf-6" value="" style="endArrow=none;html=1;rounded=0;edgeStyle=orthogonalEdgeStyle;curved=1;exitX=0.5;exitY=0;exitDx=0;exitDy=0;exitPerimeter=0;" edge="1" parent="1" source="uQFlVMjGtfuedlcn_8W_-1" target="uQFlVMjGtfuedlcn_8W_-5">
          <mxGeometry width="50" height="50" relative="1" as="geometry">
            <mxPoint x="115" y="230" as="sourcePoint" />
            <mxPoint x="315" y="155" as="targetPoint" />
          </mxGeometry>
        </mxCell>
        <mxCell id="oF3aaQSfedgvDOoEszKf-7" value="" style="endArrow=none;html=1;rounded=0;edgeStyle=orthogonalEdgeStyle;entryX=0;entryY=0.5;entryDx=0;entryDy=0;curved=1;exitX=1;exitY=1;exitDx=0;exitDy=0;exitPerimeter=0;" edge="1" parent="1" source="uQFlVMjGtfuedlcn_8W_-1" target="uQFlVMjGtfuedlcn_8W_-6">
          <mxGeometry width="50" height="50" relative="1" as="geometry">
            <mxPoint x="125" y="240" as="sourcePoint" />
            <mxPoint x="325" y="165" as="targetPoint" />
          </mxGeometry>
        </mxCell>
        <mxCell id="oF3aaQSfedgvDOoEszKf-8" value="" style="endArrow=none;html=1;rounded=0;edgeStyle=orthogonalEdgeStyle;entryX=0;entryY=0.5;entryDx=0;entryDy=0;curved=1;exitX=0.5;exitY=0;exitDx=0;exitDy=0;exitPerimeter=0;" edge="1" parent="1" source="uQFlVMjGtfuedlcn_8W_-1" target="uQFlVMjGtfuedlcn_8W_-7">
          <mxGeometry width="50" height="50" relative="1" as="geometry">
            <mxPoint x="-30" y="350" as="sourcePoint" />
            <mxPoint x="305" y="295" as="targetPoint" />
          </mxGeometry>
        </mxCell>
        <mxCell id="oF3aaQSfedgvDOoEszKf-9" value="" style="endArrow=none;html=1;rounded=0;edgeStyle=orthogonalEdgeStyle;entryX=0;entryY=0.5;entryDx=0;entryDy=0;curved=1;exitX=1;exitY=1;exitDx=0;exitDy=0;exitPerimeter=0;" edge="1" parent="1" source="uQFlVMjGtfuedlcn_8W_-1" target="uQFlVMjGtfuedlcn_8W_-8">
          <mxGeometry width="50" height="50" relative="1" as="geometry">
            <mxPoint x="140" y="320" as="sourcePoint" />
            <mxPoint x="273" y="345" as="targetPoint" />
          </mxGeometry>
        </mxCell>
        <mxCell id="oF3aaQSfedgvDOoEszKf-10" value="" style="endArrow=none;html=1;rounded=0;edgeStyle=orthogonalEdgeStyle;entryX=0;entryY=0.5;entryDx=0;entryDy=0;curved=1;exitX=1;exitY=1;exitDx=0;exitDy=0;exitPerimeter=0;" edge="1" parent="1" source="uQFlVMjGtfuedlcn_8W_-1" target="uQFlVMjGtfuedlcn_8W_-9">
          <mxGeometry width="50" height="50" relative="1" as="geometry">
            <mxPoint x="130" y="310" as="sourcePoint" />
            <mxPoint x="305" y="395" as="targetPoint" />
          </mxGeometry>
        </mxCell>
        <mxCell id="oF3aaQSfedgvDOoEszKf-11" value="" style="endArrow=none;html=1;rounded=0;edgeStyle=orthogonalEdgeStyle;entryX=0;entryY=0.5;entryDx=0;entryDy=0;curved=1;exitX=1;exitY=1;exitDx=0;exitDy=0;exitPerimeter=0;" edge="1" parent="1" source="uQFlVMjGtfuedlcn_8W_-1" target="uQFlVMjGtfuedlcn_8W_-10">
          <mxGeometry width="50" height="50" relative="1" as="geometry">
            <mxPoint x="140" y="320" as="sourcePoint" />
            <mxPoint x="315" y="405" as="targetPoint" />
          </mxGeometry>
        </mxCell>
      </root>
    </mxGraphModel>
  </diagram>
</mxfile>
